<!--?xml version="1.0" standalone="no"?-->
              <svg id="sw-js-blob-svg" viewBox="0 0 100 100" xmlns="http://www.w3.org/2000/svg" version="1.1">
                    <defs> 
                        <linearGradient id="sw-gradient" x1="0" x2="1" y1="1" y2="0">
                            <stop id="stop1" stop-color="rgba(166.006, 55, 248, 1)" offset="0%"></stop>
                            <stop id="stop2" stop-color="rgba(124.228, 39.428, 232.303, 1)" offset="100%"></stop>
                        </linearGradient>
                    </defs>
                <path fill="url(#sw-gradient)" d="M15.9,-17.5C23.4,-16.5,34.2,-15.6,38.8,-10.5C43.3,-5.4,41.6,3.8,36.1,9C30.7,14.2,21.4,15.5,14.8,16.7C8.2,17.9,4.1,18.9,-1.8,21.4C-7.7,23.9,-15.5,27.9,-18.5,25.6C-21.6,23.3,-19.9,14.6,-20.5,7.8C-21.1,1,-24,-3.8,-23.4,-8.2C-22.9,-12.7,-18.9,-16.6,-14.4,-18.6C-9.9,-20.7,-5,-20.8,-0.4,-20.2C4.2,-19.7,8.4,-18.6,15.9,-17.5Z" width="100%" height="100%" transform="translate(50 50)" stroke-width="0" style="transition: all 0.3s ease 0s;"></path>
              </svg>